<svg width="424" height="556" viewBox="0 0 424 556" fill="none" xmlns="http://www.w3.org/2000/svg">
<path d="M198.133 550.434C197.427 550.434 196.749 550.16 196.242 549.669C195.734 549.178 195.438 548.509 195.415 547.803L207.516 378.42H224.341L200.851 547.803C200.828 548.509 200.532 549.178 200.024 549.669C199.517 550.16 198.839 550.434 198.133 550.434Z" fill="white" stroke="#3F4D79" stroke-width="5" stroke-miterlimit="10" stroke-linecap="round"/>
<path d="M302.681 550.434C301.975 550.434 301.297 550.16 300.79 549.669C300.282 549.178 299.986 548.509 299.963 547.803L276.473 378.42H293.298L305.399 547.803C305.376 548.509 305.079 549.178 304.572 549.669C304.065 550.16 303.387 550.434 302.681 550.434Z" fill="white" stroke="#3F4D79" stroke-width="5" stroke-miterlimit="10" stroke-linecap="round"/>
<path d="M351.173 550.434C350.467 550.434 349.789 550.16 349.282 549.669C348.775 549.178 348.478 548.509 348.455 547.803L324.965 378.42H341.791L353.891 547.803C353.868 548.509 353.572 549.178 353.065 549.669C352.557 550.16 351.879 550.434 351.173 550.434Z" fill="white" stroke="#3F4D79" stroke-width="5" stroke-miterlimit="10" stroke-linecap="round"/>
<path d="M357.393 342.101L352.535 361.598H336.563L341.421 342.101H357.393Z" fill="white" stroke="#3F4D79" stroke-width="5" stroke-miterlimit="10" stroke-linecap="round"/>
<path d="M295.051 342.101L290.193 361.598H274.222L279.08 342.101H295.051Z" fill="white" stroke="#3F4D79" stroke-width="5" stroke-miterlimit="10" stroke-linecap="round"/>
<path d="M354.697 360.259H187.754C182.25 360.259 177.788 364.722 177.788 370.227C177.788 375.733 182.25 380.196 187.754 380.196H354.697C360.2 380.196 364.662 375.733 364.662 370.227C364.662 364.722 360.2 360.259 354.697 360.259Z" fill="#FFB000"/>
<path d="M423.378 205.106L393.104 326.629C391.907 331.426 389.142 335.686 385.248 338.73C381.353 341.774 376.553 343.428 371.611 343.428H261.28C255.172 343.428 250.923 334.191 253.027 325.48L283.186 200.691C284.618 194.762 288.333 190.827 292.493 190.827H412.363C417.23 190.827 425.037 198.194 423.378 205.106Z" fill="#FFB000"/>
<path d="M75.1848 521.113C75.1848 524.193 84.7098 533.626 81.5022 549.392C81.5022 549.392 58.0034 549.428 46.4764 549.499C32.774 549.584 3.62963 549.584 3.62963 549.584C3.62963 549.584 0.800166 537.018 15.8106 535.277C30.821 533.537 49.8487 517.663 49.8487 517.663L75.1848 521.113Z" fill="#E2631E"/>
<path d="M82.512 550.835C68.8096 550.919 3.62962 550.919 3.62962 550.919" stroke="#3F4D79" stroke-width="7" stroke-miterlimit="10" stroke-linecap="round"/>
<path d="M50.2936 517.663C51.7795 513.519 53.9194 499.982 53.9194 499.982L78.0632 502.101C78.0632 502.101 74.0593 511.151 74.7399 520.668C74.9713 523.877 48.6608 522.208 50.2936 517.663Z" fill="#FFC0B7"/>
<path d="M293.952 348.756C267.108 359.733 141.263 352.803 141.263 352.803C141.263 352.803 138.688 451.449 91.3652 502.515C91.3652 502.515 58.7241 501.42 49.7775 499.11C49.7775 499.11 74.513 351.476 92.1972 322.475C101.54 307.123 206.728 283.695 229.408 281.723C236.163 286.226 243.334 290.072 250.821 293.208C271.437 301.91 292.582 305.026 308.482 305.948C310.925 320.21 311.312 341.661 293.952 348.756Z" fill="#3C4564"/>
<path d="M93.425 521.113C93.425 524.193 102.95 533.626 99.7424 549.392C99.7424 549.392 76.2436 549.428 64.7167 549.499C51.0142 549.584 21.8699 549.584 21.8699 549.584C21.8699 549.584 19.0404 537.018 34.0508 535.277C49.0612 533.537 68.0889 517.663 68.0889 517.663L93.425 521.113Z" fill="#FE7523"/>
<path d="M100.752 550.835C87.0498 550.919 21.8698 550.919 21.8698 550.919" stroke="#3F4D79" stroke-width="7" stroke-miterlimit="10" stroke-linecap="round"/>
<path d="M68.5338 517.663C70.0197 513.519 72.1596 499.982 72.1596 499.982L99.8626 502.991C99.8626 502.991 94.8354 507.603 92.9802 520.668C92.5264 523.85 66.9011 522.208 68.5338 517.663Z" fill="#FFCFC9"/>
<path d="M313.38 360.361C286.536 371.351 160.692 364.407 160.692 364.407C160.692 364.407 163.29 450.318 103.844 503.147C103.844 503.147 74.0993 501.006 65.1393 498.696C65.1393 498.696 103.239 359.208 111.612 334.08C116.194 320.325 233.065 293.804 250.807 293.208C280.076 305.565 310.377 306.629 325.299 306.228C327.964 315.264 336.741 350.813 313.38 360.361Z" fill="#3F4D79"/>
<path d="M236.638 244.488C206.19 250.564 133.042 247.96 102.376 241.795C100.713 243.081 98.9649 244.255 97.1443 245.307C93.1403 247.608 85.4305 249.469 83.602 249.366C81.7736 249.264 70.5536 247.541 70.5536 247.541C70.5536 247.541 70.1532 246.273 71.7948 244.599C73.4364 242.925 85.4705 244.256 81.0706 240.593C79.1132 238.955 69.3657 242.64 65.126 246.727C60.8862 250.813 58.8976 247.577 58.8976 247.577C58.8976 247.577 62.955 240.01 64.4097 238.639C65.8645 237.268 75.5318 231.454 82.0805 230.568C86.823 229.927 98.2298 230.809 104.267 232.264C126.64 226.949 169.567 220.174 200.131 220.419C204.192 203.504 209.126 182.796 210.439 176.671L232.167 190.916L236.638 244.488Z" fill="#FFC0B7"/>
<path d="M210.439 176.671L209.068 182.747C209.068 182.747 214.696 197.014 232.861 201.723L232.167 190.907L210.439 176.671Z" fill="#FAB6AD"/>
<path d="M342.774 214.69C342.774 214.69 341.15 214.588 338.414 214.307C335.3 237.317 332.559 256.644 332.559 260.887C332.559 272.286 334.784 305.672 334.784 305.672C334.784 305.672 274.787 312.407 229.026 281.461C229.026 281.461 239.632 267.176 234.129 222.164C230.472 192.22 232.167 190.907 232.167 190.907C232.167 190.907 220.956 185.058 205.055 172.456C205.055 172.456 213.308 131.637 226.472 123.629C239.636 115.621 260.065 111.886 273.63 106.776C287.194 101.666 307.815 96.3598 307.815 96.3598C313.318 100.878 339.446 113.658 345.928 121.323C355.164 129.794 367.825 163.388 342.774 214.69Z" fill="#CEEFF7"/>
<path d="M290.024 201.265C290.024 201.265 295.634 192.046 302.401 158.438" stroke="#84D7EC" stroke-width="5" stroke-miterlimit="10"/>
<path d="M231.668 190.056C231.028 181.928 231.891 166.718 232.941 158.265" stroke="#84D7EC" stroke-width="5" stroke-miterlimit="10"/>
<path d="M338.405 214.309C338.405 214.309 314.626 274.438 303.86 275.435C268.794 278.68 210.194 245.268 197.532 244.877L191.98 244.699C188.866 246.528 184.907 248.086 181.557 247.102C174.803 245.126 169.394 240.243 164.918 242.339C160.442 244.436 155.277 248.46 152.439 248.126C146.5 247.41 143.074 244.254 143.074 244.254C143.074 244.254 146.771 240.221 150.504 236.388C147.857 237.425 143.83 240.274 141.771 241.253C138.656 242.727 137.055 240.092 137.055 240.092C137.055 240.092 144 233.953 146.397 232.498C148.715 231.095 155.219 229.622 158.503 229.551C162.476 229.017 184.266 226.039 195.495 227.223C208.37 226.746 234.2 227.668 279.703 236.228L292.742 202.762C292.742 202.762 312.544 211.572 338.405 214.309Z" fill="#FFCFC9"/>
<path d="M338.405 214.312C338.405 214.312 336.256 219.747 332.955 227.377C322.14 224.181 304.607 217.392 292.026 204.595L292.742 202.752C292.742 202.752 312.548 211.57 338.405 214.312Z" fill="#FAB6AD"/>
<path d="M284.031 56.2575C284.031 56.2575 285.811 81.6303 307.801 96.3598C307.801 96.3598 296.212 121.733 269.492 123.486C242.773 125.24 262.922 110.226 262.922 110.226C262.922 110.226 255.95 87.1455 254.767 81.6436L284.031 56.2575Z" fill="#FFCFC9"/>
<path d="M283.951 69.4335C282.617 81.0382 272.384 97.6729 259.692 99.3778C257.699 92.5895 255.403 84.5904 254.771 81.6436L282.554 57.5306L283.417 59.2488C283.417 59.2488 284.236 66.9853 283.951 69.4335Z" fill="#FAB6AD"/>
<path d="M281.94 58.0737C281.94 58.0737 282.354 66.0283 281.286 68.2495C276.37 78.4876 260.955 90.2392 248.97 90.2392C239.694 90.2392 228.826 61.9597 227.847 51.5391C226.868 41.1185 228.238 24.6084 253.383 22.6453C278.528 20.6823 280.299 46.8207 280.299 46.8207L281.94 58.0737Z" fill="#FFCFC9"/>
<path d="M208.592 40.927C208.592 40.927 203.917 31.6326 211.733 24.8087C220.956 16.7473 229.408 20.4819 234.133 15.3718C238.858 10.2616 248.73 -0.653104 263.406 1.21202C276.566 2.88573 280.405 12.0288 280.405 12.0288C280.405 12.0288 288.547 8.59682 295.616 17.8156C302.685 27.0343 285.611 65.4451 285.611 65.4451C285.611 65.4451 281.015 50.1413 280.299 46.8473C278.693 39.4714 264.189 41.2119 265.368 26.794C265.368 26.794 261.44 36.6226 246.51 36.4356C242.061 36.3822 236.313 35.1625 230.605 34.3168C227.446 39.9121 227.362 46.469 227.847 51.5613C227.847 51.5391 214.496 51.3343 208.592 40.927Z" fill="#FE7523"/>
<path d="M280.001 12.0289C280.001 12.0289 286.594 5.7569 293.592 11.7529" stroke="#FE7523" stroke-width="3" stroke-miterlimit="10"/>
<path d="M265.368 25.9616C265.368 25.9616 262.632 39.1955 247.724 40.059" stroke="#FE7523" stroke-width="3" stroke-miterlimit="10"/>
<path d="M284.249 42.6364L279.507 6.80738C279.35 5.61477 278.743 4.52729 277.811 3.7676C276.879 3.00792 275.692 2.63351 274.493 2.72103" stroke="#3F4D79" stroke-width="5" stroke-miterlimit="10" stroke-linecap="round"/>
<path d="M288.195 68.6234C289.468 74.8909 300.545 92.0331 281.286 124.746C262.027 157.459 287.07 167.203 274.404 189.611C261.738 212.019 234.28 210.791 235.699 248.289C236.633 272.963 214.523 276.301 215.799 248.289" stroke="#3F4D79" stroke-width="5" stroke-miterlimit="10" stroke-linecap="round"/>
<path d="M247.84 214.695C254.451 209.295 261.138 178.719 250.531 161.323C239.925 143.927 229.56 120.477 245.193 90.938" stroke="#3F4D79" stroke-width="5" stroke-miterlimit="10" stroke-linecap="round"/>
<path d="M288.494 42.0109L279.141 43.4244C276.297 43.8544 274.339 46.5106 274.768 49.3571L277.136 65.0394C277.566 67.8859 280.22 69.8448 283.065 69.4149L292.417 68.0013C295.262 67.5714 297.22 64.9152 296.79 62.0687L294.423 46.3864C293.993 43.5399 291.339 41.5809 288.494 42.0109Z" fill="white" stroke="#ECBE02" stroke-width="6" stroke-miterlimit="10"/>
<path d="M11.3706 257.241H250.763C253.308 257.241 255.372 260.196 255.372 263.847V264.452C255.372 268.098 253.308 271.053 250.763 271.053H70.5402" fill="white"/>
<path d="M14.0399 256.351H250.763C253.308 256.351 255.372 259.306 255.372 262.956V263.562C255.372 267.207 253.308 270.163 250.763 270.163H71.43" stroke="#3CBFD4" stroke-width="5" stroke-miterlimit="10" stroke-linecap="round"/>
<path d="M239.512 553.372L194.156 270.608H209.771L254.682 552.927L239.512 553.372Z" fill="white"/>
<path d="M212.409 284.968L195.566 278.678L194.151 270.608H209.776L212.409 284.968Z" fill="#CEEFF7"/>
<path d="M238.622 551.591L194.156 270.608H209.771L253.792 551.146" stroke="#3CBFD4" stroke-width="7" stroke-miterlimit="10" stroke-linecap="round"/>
<path d="M182.295 244.71H47.5708C45.7856 244.711 44.0431 244.163 42.5791 243.141C41.1151 242.119 40.0001 240.672 39.385 238.995L8.3365 154.334C7.94825 153.284 7.8196 152.156 7.96154 151.046C8.10348 149.935 8.5118 148.876 9.15164 147.957C9.79148 147.039 10.6439 146.289 11.6361 145.772C12.6282 145.255 13.7308 144.985 14.8496 144.986H151.353C153.368 144.988 155.333 145.61 156.983 146.767C158.633 147.924 159.887 149.56 160.576 151.454L190.481 232.985C190.964 234.304 191.121 235.719 190.94 237.111C190.759 238.503 190.245 239.831 189.441 240.982C188.638 242.133 187.569 243.073 186.325 243.722C185.08 244.371 183.698 244.71 182.295 244.71Z" fill="white" stroke="#FFB000" stroke-width="5" stroke-miterlimit="10"/>
<path d="M176.433 244.71H46.2376C44.4904 244.692 42.7917 244.133 41.3751 243.11C39.9586 242.086 38.8939 240.649 38.3275 238.995L8.32454 154.334C6.71851 149.807 9.95726 144.986 14.6197 144.986H146.532C148.499 145.008 150.412 145.64 152.005 146.794C153.599 147.949 154.795 149.569 155.43 151.432L184.347 232.968C186.358 238.701 182.288 244.71 176.433 244.71Z" fill="white" stroke="#FFB000" stroke-width="5" stroke-miterlimit="10"/>
<path d="M239.792 244.71H45.9604C43.4861 244.71 41.4804 246.717 41.4804 249.193V249.424C41.4804 251.9 43.4861 253.907 45.9604 253.907H239.792C242.266 253.907 244.272 251.9 244.272 249.424V249.193C244.272 246.717 242.266 244.71 239.792 244.71Z" fill="white" stroke="#FFB000" stroke-width="5" stroke-miterlimit="10"/>
</svg>
